HIERARCHY
ROOT Hips
{
	OFFSET 0.00 0.00 0.00
	CHANNELS 6 Xposition Yposition Zposition Xrotation Yrotation Zrotation
	JOINT Spine
	{
		OFFSET 0.00000 7.06766 0.00000
		CHANNELS 3 Xrotation Yrotation Zrotation
		JOINT Head
		{
			OFFSET 0.00000 15.03989 0.00000
			CHANNELS 3 Xrotation Yrotation Zrotation
			End Site
			{
				OFFSET 0.00000 4.52755 0.00000
			}
		}
		JOINT LeftShoulder
		{
			OFFSET 0.00000 10.53037 0.00000
			CHANNELS 3 Xrotation Yrotation Zrotation
			JOINT LeftArm
			{
				OFFSET 7.02886 0.00000 0.00000
				CHANNELS 3 Xrotation Yrotation Zrotation
				JOINT LeftForeArm
				{
					OFFSET 10.79770 0.00000 0.00000
					CHANNELS 3 Yrotation Zrotation Xrotation
					JOINT LeftHand
					{
						OFFSET 7.90744 0.00000 0.00000
						CHANNELS 3 Xrotation Yrotation Zrotation
						JOINT LeftHandThumb1
						{
							OFFSET 0.00000 0.00000 0.00000
							CHANNELS 3 Xrotation Zrotation Yrotation
							End Site
							{
								OFFSET 0.00000 0.00000 3.93700
							}
						}
						End Site
						{
							OFFSET 3.93700 0.00000 0.00000
						}
					}
				}
			}
		}
		JOINT RightShoulder
		{
			OFFSET 0.00000 10.53037 0.00000
			CHANNELS 3 Xrotation Yrotation Zrotation
			JOINT RightArm
			{
				OFFSET -7.02886 0.00000 0.00000
				CHANNELS 3 Xrotation Yrotation Zrotation
				JOINT RightForeArm
				{
					OFFSET -10.79770 0.00000 0.00000
					CHANNELS 3 Yrotation Zrotation Xrotation
					JOINT RightHand
					{
						OFFSET -7.90744 0.00000 0.00000
						CHANNELS 3 Xrotation Yrotation Zrotation
						JOINT RightHandThumb1
						{
							OFFSET 0.00000 0.00000 0.00000
							CHANNELS 3 Xrotation Zrotation Yrotation
							End Site
							{
								OFFSET 0.00000 0.00000 3.93700
							}
						}
						End Site
						{
							OFFSET -3.93700 0.00000 0.00000
						}
					}
				}
			}
		}
	}
	JOINT LeftUpLeg
	{
		OFFSET 4.01300 0.00000 0.00000
		CHANNELS 3 Xrotation Yrotation Zrotation
		JOINT LeftLeg
		{
			OFFSET 0.00000 -16.89976 0.00000
			CHANNELS 3 Xrotation Yrotation Zrotation
			JOINT LeftFoot
			{
				OFFSET 0.00000 -17.38918 0.00000
				CHANNELS 3 Xrotation Yrotation Zrotation
				JOINT LeftToeBase
				{
					OFFSET 0.00000 -1.27456 4.75673
					CHANNELS 3 Xrotation Yrotation Zrotation
					End Site
					{
						OFFSET 0.00000 0.00000 2.95275
					}
				}
			}
		}
	}
	JOINT RightUpLeg
	{
		OFFSET -4.01300 0.00000 0.00000
		CHANNELS 3 Xrotation Yrotation Zrotation
		JOINT RightLeg
		{
			OFFSET 0.00000 -16.89976 0.00000
			CHANNELS 3 Xrotation Yrotation Zrotation
			JOINT RightFoot
			{
				OFFSET 0.00000 -17.38918 0.00000
				CHANNELS 3 Xrotation Yrotation Zrotation
				JOINT RightToeBase
				{
					OFFSET 0.00000 -1.27456 4.75673
					CHANNELS 3 Xrotation Yrotation Zrotation
					End Site
					{
						OFFSET 0.00000 0.00000 2.95275
					}
				}
			}
		}
	}
}
MOTION
Frames: 16
Frame Time: 0.008333
 18.6502 35.5216 -22.0959 172.6912 -1.0971 177.9854 -21.3345 -15.8688 -0.5499 6.6012 10.7937 2.0792 -95.7246 -44.3670 -17.9249 -58.9434 -22.4024 -129.3385 -70.6472 -0.0000 36.4805 0.5275 3.0980 -9.6687 33.1476 -0.0000 26.2537 -4.3119 11.9201 6.3054 -39.7672 31.3611 76.8298 132.7705 0.0000 -35.0740 0.4544 5.4259 -4.7948 32.8623 0.0000 -24.3270 0.4010 13.2655 1.8984 -6.3910 0.0000 -0.0000 -19.3793 30.7720 7.4143 26.8807 -0.0000 -0.0000 0.3210 -9.2309 1.8868 -3.7053 0.0000 0.0000 -17.3999 -28.9384 -1.8563 23.5523 0.0000 -0.0000
 18.6503 35.5215 -22.0984 172.6755 -1.0430 177.9843 -21.3607 -15.9213 -0.5332 6.6363 10.7972 2.0852 -95.8463 -44.3827 -17.9644 -58.7680 -22.2959 -129.2739 -71.3389 -0.0000 36.4973 0.5336 3.1327 -9.6708 33.1476 -0.0000 26.2537 -4.3692 11.8930 6.2904 -39.7301 31.3506 76.7782 132.7834 0.0000 -34.9804 0.4473 5.2411 -4.8847 32.8623 0.0000 -24.3270 0.4024 13.2901 1.8996 -6.4033 -0.0000 -0.0000 -19.3884 30.7890 7.4289 26.9351 0.0000 -0.0000 0.3005 -9.1941 1.8891 -3.7040 -0.0000 -0.0000 -17.3853 -28.9324 -1.8301 23.5404 0.0000 0.0000
 18.6502 35.5207 -22.0996 172.6629 -0.9877 177.9906 -21.3759 -15.9828 -0.5119 6.6396 10.8568 2.0841 -95.8873 -44.3895 -17.9191 -58.6350 -22.1867 -129.2070 -72.0097 -0.0000 36.4080 0.5321 3.1733 -9.5239 33.1476 -0.0000 26.2537 -4.1763 11.7806 6.3178 -40.0492 31.5088 76.7372 132.6717 0.0000 -35.0571 0.4484 5.2021 -4.9330 32.8623 0.0000 -24.3270 0.4025 13.3047 1.8930 -6.4073 0.0000 0.0000 -19.4082 30.8254 7.4448 26.9167 0.0000 -0.0000 0.2881 -9.1851 1.8829 -3.7160 0.0000 0.0000 -17.3761 -28.8823 -1.8276 23.5761 -0.0000 -0.0000
 18.6503 35.5200 -22.1018 172.6675 -0.9324 177.9949 -21.3645 -16.0281 -0.4774 6.6420 10.8772 2.0325 -95.9628 -44.3761 -17.8931 -58.4536 -22.0819 -129.1165 -72.6965 -0.0000 36.2048 0.5427 3.1941 -9.6489 33.1476 -0.0000 26.2537 -3.9509 11.6748 6.3394 -40.3842 31.7036 76.6892 132.6096 0.0000 -35.0890 0.4539 5.0702 -5.1220 32.8623 0.0000 -24.3270 0.4225 13.3260 1.8885 -6.4160 0.0000 -0.0000 -19.4180 30.8560 7.4602 26.9057 0.0000 0.0000 0.2890 -9.1542 1.8795 -3.7181 0.0000 -0.0000 -17.3435 -28.8748 -1.7369 23.4465 0.0000 -0.0000
 18.6501 35.5195 -22.1036 172.6650 -0.8793 177.9982 -21.3694 -16.0544 -0.4579 6.6781 10.8342 1.9924 -96.0246 -44.3671 -17.8993 -58.3085 -22.0073 -129.0308 -73.3172 -0.0000 36.0074 0.5684 3.3541 -9.6234 33.1476 -0.0000 26.2537 -4.0325 11.6243 6.3358 -40.3242 31.7331 76.6507 132.5854 0.0000 -35.2146 0.4494 5.0038 -5.1387 32.8623 0.0000 -24.3270 0.4327 13.3428 1.8866 -6.4182 -0.0000 -0.0000 -19.4327 30.8765 7.4747 26.8928 0.0000 0.0000 0.2796 -9.1335 1.8785 -3.7123 -0.0000 0.0000 -17.3815 -28.8465 -1.8208 23.5739 -0.0000 0.0000
 18.6503 35.5190 -22.1054 172.6684 -0.8267 178.0000 -21.3590 -16.0670 -0.4475 6.6448 10.8115 2.0380 -96.1250 -44.3907 -17.9377 -58.0960 -21.8882 -128.8968 -73.8491 -0.0000 35.7050 0.5609 3.3283 -9.5717 33.1476 -0.0000 26.2537 -4.1744 11.5927 6.3071 -40.1566 31.7272 76.6080 132.6100 0.0000 -35.3264 0.4483 4.9161 -5.2174 32.8623 0.0000 -24.3270 0.4431 13.3764 1.8860 -6.4160 0.0000 -0.0000 -19.4475 30.8919 7.4930 26.8686 -0.0000 0.0000 0.2788 -9.0943 1.8782 -3.7147 -0.0000 -0.0000 -17.3816 -28.8337 -1.8134 23.6163 -0.0000 0.0000
 18.6508 35.5182 -22.1075 172.6790 -0.7924 178.0025 -21.3486 -16.0859 -0.4488 6.6547 10.7733 2.0569 -96.0099 -44.3788 -17.8857 -58.0875 -21.7933 -128.7664 -74.2181 -0.0000 35.1225 0.5329 3.1418 -9.6307 33.1476 -0.0000 26.2537 -4.3252 11.5534 6.2635 -39.9539 31.7306 76.5645 132.6479 0.0000 -35.4617 0.4531 4.7933 -5.4061 32.8623 0.0000 -24.3270 0.4623 13.3760 1.8856 -6.4134 -0.0000 -0.0000 -19.4717 30.9188 7.5140 26.8957 0.0000 -0.0000 0.2894 -9.0836 1.8771 -3.7174 0.0000 -0.0000 -17.3825 -28.8164 -1.8149 23.5829 -0.0000 -0.0000
 18.6507 35.5179 -22.1101 172.6998 -0.7517 178.0069 -21.3179 -16.0977 -0.4446 6.6351 10.7415 2.0680 -96.3263 -44.3902 -18.0434 -57.5917 -21.5137 -128.6019 -74.5872 -0.0000 34.8630 0.4826 2.7289 -10.0320 33.1476 -0.0000 26.2537 -4.4207 11.5198 6.2171 -39.8161 31.6923 76.5344 132.6716 0.0000 -35.8443 0.4491 4.8104 -5.3398 32.8623 0.0000 -24.3270 0.4916 13.3891 1.8833 -6.4096 -0.0000 -0.0000 -19.4839 30.9410 7.5030 26.8850 -0.0000 -0.0000 0.3084 -9.0606 1.8742 -3.7189 -0.0000 0.0000 -17.3890 -28.7931 -1.8297 23.5993 0.0000 -0.0000
 18.6509 35.5173 -22.1121 172.7145 -0.7363 178.0030 -21.2942 -16.1424 -0.4318 6.6446 10.7076 2.0144 -96.3820 -44.3571 -18.0522 -57.4498 -21.4332 -128.4288 -74.8142 -0.0000 34.1219 0.4627 2.7076 -9.7007 33.1476 -0.0000 26.2537 -4.4396 11.4715 6.1454 -39.7773 31.7422 76.5374 132.7189 0.0000 -35.9838 0.4484 4.5641 -5.6169 32.8623 0.0000 -24.3270 0.5048 13.3819 1.8903 -6.3972 -0.0000 -0.0000 -19.5087 30.9473 7.5370 26.8764 0.0000 -0.0000 0.3216 -9.0604 1.8772 -3.7106 0.0000 -0.0000 -17.3862 -28.7760 -1.8155 23.6117 -0.0000 0.0000
 18.6503 35.5166 -22.1145 172.7366 -0.7082 178.0069 -21.2573 -16.1683 -0.4274 6.6141 10.6974 2.0051 -96.4594 -44.3337 -18.0369 -57.2317 -21.2594 -128.2822 -74.9597 -0.0000 33.5411 0.4410 2.5980 -9.6367 33.1476 -0.0000 26.2537 -4.4351 11.3905 6.0772 -39.7593 31.8159 76.5390 132.7637 0.0000 -36.0141 0.4425 4.2960 -5.8859 32.8623 0.0000 -24.3270 0.5294 13.3644 1.8900 -6.3806 -0.0000 0.0000 -19.5389 30.9786 7.5594 26.8624 -0.0000 -0.0000 0.3425 -9.0408 1.8713 -3.7086 -0.0000 -0.0000 -17.3954 -28.7639 -1.8312 23.6385 -0.0000 0.0000
 18.6507 35.5169 -22.1161 172.7531 -0.7014 177.9995 -21.2233 -16.2252 -0.4125 6.5870 10.6282 2.0038 -96.5070 -44.2942 -17.9704 -56.9722 -21.0393 -128.1476 -75.0223 -0.0000 32.9558 0.4075 2.4077 -9.6103 33.1476 -0.0000 26.2537 -4.4428 11.3088 6.0160 -39.7259 31.9005 76.5324 132.7184 0.0000 -36.1235 0.4359 4.2665 -5.8384 32.8623 0.0000 -24.3270 0.5405 13.3515 1.9004 -6.3662 0.0000 0.0000 -19.5567 30.9956 7.5803 26.8558 0.0000 -0.0000 0.3545 -9.0352 1.8791 -3.6926 0.0000 0.0000 -17.4028 -28.7640 -1.8077 23.6328 0.0000 -0.0000
 18.6515 35.5165 -22.1173 172.7664 -0.7048 177.9958 -21.2054 -16.2914 -0.4259 6.5906 10.5778 1.9884 -96.5790 -44.2869 -17.9710 -56.6841 -20.8320 -127.9723 -75.0123 -0.0000 32.3854 0.3644 2.1384 -9.6742 33.1476 -0.0000 26.2537 -4.4232 11.2260 5.9873 -39.7454 31.9166 76.5096 132.6621 0.0000 -36.3187 0.4118 4.1555 -5.6647 32.8623 0.0000 -24.3270 0.5509 13.3308 1.9063 -6.3576 -0.0000 -0.0000 -19.5724 31.0144 7.6054 26.8733 -0.0000 0.0000 0.3641 -9.0372 1.8824 -3.6804 0.0000 0.0000 -17.4140 -28.7584 -1.8215 23.6351 -0.0000 -0.0000
 18.6520 35.5159 -22.1186 172.7767 -0.7012 177.9923 -21.1940 -16.3571 -0.4301 6.6081 10.5411 1.9738 -96.6112 -44.2651 -17.9220 -56.3961 -20.5922 -127.8134 -74.9483 -0.0000 31.8025 0.3758 2.2547 -9.4650 33.1476 -0.0000 26.2537 -4.5001 11.1500 5.9682 -39.6672 31.9842 76.4843 132.6162 0.0000 -36.4269 0.3963 4.0597 -5.5797 32.8623 0.0000 -24.3270 0.5523 13.3508 1.9129 -6.3442 -0.0000 -0.0000 -19.5883 31.0022 7.6191 26.7538 -0.0000 0.0000 0.3692 -9.0184 1.8834 -3.6643 -0.0000 0.0000 -17.4271 -28.7515 -1.8318 23.6408 -0.0000 0.0000
 18.6522 35.5152 -22.1201 172.7869 -0.7091 177.9889 -21.1866 -16.4258 -0.4420 6.6038 10.5901 2.0026 -96.5491 -44.2273 -17.8372 -56.2189 -20.3814 -127.6710 -74.7685 -0.0000 31.3510 0.3604 2.1901 -9.3477 33.1476 -0.0000 26.2537 -4.5141 11.0608 5.9318 -39.6545 32.0173 76.4437 132.5034 0.0000 -36.4434 0.3732 4.0252 -5.3009 32.8623 0.0000 -24.3270 0.5541 13.3469 1.9185 -6.3269 0.0000 -0.0000 -19.6137 30.9885 7.6433 26.7365 -0.0000 0.0000 0.3795 -9.0228 1.8850 -3.6548 -0.0000 0.0000 -17.4277 -28.7513 -1.8093 23.6010 0.0000 -0.0000
 18.6524 35.5147 -22.1212 172.8033 -0.7218 177.9859 -21.1725 -16.4942 -0.4626 6.6340 10.5470 2.0172 -96.5524 -44.1774 -17.7980 -55.9687 -20.1541 -127.5297 -74.5540 -0.0000 30.9476 0.3578 2.1564 -9.4235 33.1476 -0.0000 26.2537 -4.5310 10.9882 5.9125 -39.6301 32.1696 76.3636 132.4805 0.0000 -36.6999 0.3790 3.9762 -5.4487 32.8623 0.0000 -24.3270 0.5607 13.3323 1.9246 -6.3045 -0.0000 0.0000 -19.6347 30.9777 7.6611 26.9017 0.0000 -0.0000 0.3906 -9.0241 1.8869 -3.6381 0.0000 -0.0000 -17.4517 -28.7601 -1.8222 23.6440 0.0000 -0.0000
 18.6527 35.5138 -22.1224 172.8147 -0.7266 177.9864 -21.1703 -16.5617 -0.4788 6.6894 10.5240 2.0104 -96.4584 -44.1074 -17.6975 -55.7860 -19.9356 -127.4049 -74.2811 -0.0000 30.7442 0.3630 2.2039 -9.3556 33.1476 -0.0000 26.2537 -4.5301 10.9251 5.8906 -39.6412 32.3052 76.3072 132.4147 0.0000 -36.7520 0.3794 3.9630 -5.4723 32.8623 0.0000 -24.3270 0.5654 13.3589 1.9264 -6.2899 0.0000 0.0000 -19.6472 30.9402 7.6632 26.9092 0.0000 -0.0000 0.3969 -9.0051 1.8830 -3.6230 -0.0000 -0.0000 -17.4869 -28.7586 -1.8657 23.7179 -0.0000 -0.0000
